P2
#testPgm1
24 7
30
0  0  0  0  0  0  0  0  0  0  0  0  0  0  0  0  0  0  0  0  0  0  0  0
0  6  6  6  6  0  0  14  14  14  14  0  0 22 22 22 22  0  0 30 30 30 30  0
0  6  0  0  0  0  0  14  0  0  0  0  0 22  0  0  0  0  0 30  0  0 30  0
0  6  6  6  0  0  0  14  14  14  0  0  0 22 22 22  0  0  0 30 30 30 30  0
0  6  0  0  0  0  0  14 0  0  0  0  0 22  0  0  0  0  0 30  0  0  0  0
0  6  0  0  0  0  0  14  14  14 14  0  0 22 22 22 22  0  0 30  0  0  0  0
0  0  0  0  0  0  0  0  0  0  0  0  0  0  0  0  0  0  0  0  0  0  0  0
